<svg xmlns="http://www.w3.org/2000/svg" viewBox="0 0 1200 630" fill="none">
  <defs>
    <linearGradient id="bg" x1="0" y1="0" x2="1200" y2="630" gradientUnits="userSpaceOnUse">
      <stop stop-color="#060a12"/>
      <stop offset="1" stop-color="#0c1220"/>
    </linearGradient>
    <radialGradient id="glow-green" cx="0" cy="0" r="1" gradientUnits="userSpaceOnUse" gradientTransform="translate(280 180) rotate(90) scale(420)">
      <stop stop-color="#10b981" stop-opacity=".18"/>
      <stop offset="1" stop-color="#10b981" stop-opacity="0"/>
    </radialGradient>
    <radialGradient id="glow-gold" cx="0" cy="0" r="1" gradientUnits="userSpaceOnUse" gradientTransform="translate(920 420) rotate(90) scale(380)">
      <stop stop-color="#fbbf24" stop-opacity=".12"/>
      <stop offset="1" stop-color="#fbbf24" stop-opacity="0"/>
    </radialGradient>
    <linearGradient id="pm-green" x1="8" y1="42" x2="40" y2="12" gradientUnits="userSpaceOnUse">
      <stop stop-color="#34d399"/>
      <stop offset="1" stop-color="#10b981"/>
    </linearGradient>
    <linearGradient id="pm-gold" x1="30" y1="12" x2="38" y2="22" gradientUnits="userSpaceOnUse">
      <stop stop-color="#fbbf24"/>
      <stop offset="1" stop-color="#fcd34d"/>
    </linearGradient>
    <linearGradient id="pm-arc" x1="12" y1="40" x2="36" y2="14" gradientUnits="userSpaceOnUse">
      <stop stop-color="#34d399"/>
      <stop offset=".55" stop-color="#10b981"/>
      <stop offset="1" stop-color="#fcd34d"/>
    </linearGradient>
    <linearGradient id="pm-word" x1="320" y1="300" x2="840" y2="390" gradientUnits="userSpaceOnUse">
      <stop stop-color="#34d399"/>
      <stop offset="1" stop-color="#fbbf24"/>
    </linearGradient>
  </defs>
  <rect width="1200" height="630" fill="url(#bg)"/>
  <rect width="1200" height="630" fill="url(#glow-green)"/>
  <rect width="1200" height="630" fill="url(#glow-gold)"/>
  <g transform="translate(120 210) scale(3.2)">
    <path d="M5 41H43" stroke="#10b981" stroke-opacity=".22" stroke-width="1.5" stroke-linecap="round"/>
    <path d="M11 41V15H37V41" stroke="url(#pm-green)" stroke-width="2.25" stroke-linecap="round" stroke-linejoin="round"/>
    <g stroke="#34d399" stroke-width=".7" opacity=".22">
      <path d="M14 18v21M19 16.5v22.5M24 15.5v23.5M29 16.5v22.5M34 18v21"/>
      <path d="M12.5 20h23M12.5 26h23M12.5 32h23"/>
    </g>
    <path d="M13.5 39.5C18.5 24 24 13 33.8 17.2" stroke="url(#pm-arc)" stroke-width="2.75" stroke-linecap="round"/>
    <circle cx="33.8" cy="17.2" r="2.65" fill="url(#pm-gold)"/>
    <path d="M33.8 15v4.4M32 16l3.6 2.5M32 18.4l3.6-2.4" stroke="#060a12" stroke-width=".5" stroke-linecap="round" opacity=".6"/>
    <circle cx="33.8" cy="17.2" r="4.8" stroke="#fcd34d" stroke-opacity=".24" stroke-width="1" fill="none"/>
  </g>
  <text x="320" y="300" font-family="'Sora', 'Segoe UI', sans-serif" font-size="72" font-weight="700" fill="#f8fafc">Player</text>
  <text x="320" y="390" font-family="'Sora', 'Segoe UI', sans-serif" font-size="72" font-weight="800" fill="url(#pm-word)">Monetizado</text>
  <text x="320" y="470" font-family="'Inter', 'Segoe UI', sans-serif" font-size="28" fill="#94a3b8">Edi??es virais, performance e monetiza??o no futebol.</text>
</svg>
